# xmcd
#
# Track frame offsets:
#	150
#	7934
#	36780
#	41138
#	72301
#	89182
#	93254
#	124502
#	142535
#	178232
#	202048
#	220951
#	248811
#	269418
#
# Disc length: 4070 seconds
#
# Revision: 1
# Processed by: cddbd v1.5.2PL0 Copyright (c) Steve Scherf et al.
# Submitted via: audiograbber 1.83.01
#
DISCID=c90fe40e
DTITLE=Grateful Dead - 74-06-23 Jai-Alai Fronton, Miami FL
DYEAR=1900
DGENRE=
TTITLE0=Intro
TTITLE1=Ramble On Rose
TTITLE2=Tuning
TTITLE3=Black Throated Wind
TTITLE4=Chatter
TTITLE5=Tuning
TTITLE6=Mississippi Half-Step
TTITLE7=BIODTL
TTITLE8=Row Jimmy
TTITLE9=Jack Straw
TTITLE10=Let It Rock
TTITLE11=Cumberland Blues
TTITLE12=El Paso
TTITLE13=To Lay Me Down
EXTD=
EXTT0=
EXTT1=
EXTT2=
EXTT3=
EXTT4=
EXTT5=
EXTT6=
EXTT7=
EXTT8=
EXTT9=
EXTT10=
EXTT11=
EXTT12=
EXTT13=
PLAYORDER=
